# xmcd
#
# Track frame offsets: 
#        150
#        10644
#        23381
#        34700
#        56096
#        66157
#        83030
#        91749
#        107362
#        112431
#        125511
#        134840
#        146556
#        158072
#        173336
#
# Disc length: 2365 seconds
#
# Revision: 0
# Processed by: cddbd v1.5.2PL0 Copyright (c) Steve Scherf et al.
# Submitted via: ExactAudioCopy v1.0b1
#
DISCID=bb093b0f
DTITLE=Porter Wagoner - The Porter Wagoner Show
DYEAR=1963
DGENRE=Country
TTITLE0=Company's Comin
TTITLE1=I've Enjoyed As Much Of This As I Can Stand
TTITLE2=Silver Threads And Golden Needles
TTITLE3=Intro Of Curly Harris - Comedy Routine 1
TTITLE4=I'll Take A Chance On Loving You
TTITLE5=What Would You Do (If Jesus Came To Your House)
TTITLE6=Tell Her Lies And Feed Her Candy
TTITLE7=Medley - Your Old Love Letters
TTITLE8=Intro Of Curly Harris - Comedy Routine 2
TTITLE9=Poor Ole Hardluck Joe
TTITLE10=A Satisfied Mind
TTITLE11=I Want To Live Again
TTITLE12=It Keeps Right On A Hurtin'
TTITLE13=The Family Bible
TTITLE14=Closing Theme - Satan's Nightmare
EXTD=
EXTT0=
EXTT1=
EXTT2=
EXTT3=
EXTT4=
EXTT5=
EXTT6=
EXTT7=
EXTT8=
EXTT9=
EXTT10=
EXTT11=
EXTT12=
EXTT13=
EXTT14=
PLAYORDER=
